<svg xmlns="http://www.w3.org/2000/svg" viewBox="0 0 64 64"><defs><style>.cls-1{fill:#f3f3f3;}.cls-2{fill:#d9d9d9;}.cls-3{fill:#50d9d7;}.cls-4{fill:#ffac00;}.cls-5{fill:#fdfdfd;}.cls-6{fill:#ea9807;}.cls-7{fill:#00bebd;}</style></defs><title>File SVG</title><g id="File_SVG" data-name="File SVG"><path class="cls-1" d="M55,12V62a2,2,0,0,1-2,2H11a2,2,0,0,1-2-2V2a2,2,0,0,1,2-2H43Z"/><rect class="cls-2" x="33" y="2" width="8" height="2"/><rect class="cls-2" x="31" y="6" width="10" height="2"/><polygon class="cls-3" points="55 12 43 12 43 0 55 12"/><path class="cls-4" d="M7,37H57a2,2,0,0,1,2,2V55a2,2,0,0,1-2,2H5a0,0,0,0,1,0,0V39A2,2,0,0,1,7,37Z"/><path class="cls-5" d="M48,47H44a1,1,0,0,0,0,2h3v2a1,1,0,0,1-1,1H42a1,1,0,0,1-1-1V43a1,1,0,0,1,1-1h4a1,1,0,0,1,1,1,1,1,0,0,0,2,0,3,3,0,0,0-3-3H42a3,3,0,0,0-3,3v8a3,3,0,0,0,3,3h4a3,3,0,0,0,3-3V48A1,1,0,0,0,48,47Z"/><path class="cls-5" d="M35.05,40.68l-3,9.16L29,40.68a1,1,0,0,0-1.9.64l4,12a1,1,0,0,0,1.9,0l4-12A1,1,0,0,0,35.05,40.68Z"/><path class="cls-5" d="M19,42h5a1,1,0,0,0,0-2H19a4,4,0,0,0,0,8h2a2,2,0,0,1,0,4H16a1,1,0,0,0,0,2h5a4,4,0,0,0,0-8H19a2,2,0,0,1,0-4Z"/><polygon class="cls-6" points="5 57 9 61 9 57 5 57"/><path class="cls-7" d="M9,37,22.38,23.62a3,3,0,0,1,4.24,0l3.26,3.26a3,3,0,0,0,4.24,0l8.76-8.76a3,3,0,0,1,4.24,0L55,26V37H10"/><circle class="cls-4" cx="18" cy="14" r="4"/><circle class="cls-2" cx="14" cy="5" r="2"/></g></svg>