<svg version="1.1" id="Layer_1" xmlns="http://www.w3.org/2000/svg" xmlns:xlink="http://www.w3.org/1999/xlink" x="0px" y="0px"
	 width="100%" viewBox="0 0 1080 1080" enable-background="new 0 0 1080 1080" xml:space="preserve">
<path fill="#FFFFFF" opacity="1.000000" stroke="none" 
	d="
M686.000000,1081.000000 
	C457.359650,1081.000000 229.219330,1081.000000 1.039494,1081.000000 
	C1.039494,721.067871 1.039494,361.135742 1.039494,1.101807 
	C360.890564,1.101807 720.781128,1.101807 1080.835938,1.101807 
	C1080.835938,360.999939 1080.835938,720.999939 1080.835938,1081.000000 
	C949.468567,1081.000000 817.984314,1081.000000 686.000000,1081.000000 
M732.282471,327.000671 
	C732.096497,326.712097 731.831787,326.565094 731.434143,326.509644 
	C731.434143,326.509644 731.480591,326.452301 731.219116,325.869568 
	C726.821472,321.894470 722.423767,317.919373 718.003662,314.000488 
	C718.003662,314.000488 718.056702,313.971222 717.745422,313.410858 
	C716.539978,312.543823 715.334595,311.676788 714.090820,310.909119 
	C714.090820,310.909119 714.197266,310.908203 713.968994,310.410156 
	C713.658813,310.234406 713.348572,310.058685 713.034546,309.964355 
	C713.034546,309.964355 713.109619,309.932678 712.787537,309.409363 
	C712.217896,309.197723 711.648315,308.986084 711.082031,308.899628 
	C711.082031,308.899628 711.199524,308.856293 710.981934,308.223145 
	C710.261658,307.543182 709.593079,306.796570 708.813843,306.192749 
	C675.230652,280.170013 637.737976,262.628662 595.380615,254.006134 
	C594.922424,254.007782 594.464294,254.009415 593.428711,253.714249 
	C592.597412,253.562424 591.766113,253.410614 590.154358,253.044525 
	C578.876282,251.648956 567.631897,249.686401 556.310913,249.014435 
	C544.561523,248.317001 532.738037,248.852371 520.947266,248.916550 
	C520.266541,248.920242 519.589111,249.534973 518.032043,249.920181 
	C506.016205,251.348373 494.000336,252.776566 481.188995,254.177490 
	C475.704529,255.502350 470.160339,256.620758 464.745758,258.187164 
	C438.920685,265.658173 414.297272,275.843964 391.965698,290.972626 
	C391.965698,290.972626 391.932617,290.881958 391.246674,291.038116 
	C384.800354,295.640106 378.354034,300.242065 371.261505,305.063171 
	C369.691895,306.288025 368.014526,307.398285 366.570526,308.756653 
	C358.144989,316.682587 349.533356,324.431610 341.458374,332.702850 
	C334.560089,339.768799 328.299072,347.456818 321.191681,355.178009 
	C318.265015,359.224213 315.242706,363.205078 312.426788,367.326935 
	C289.873047,400.340607 275.371185,436.732727 269.117981,476.079529 
	C265.182648,500.841949 263.475128,525.944031 267.809814,551.654053 
	C267.900787,552.112366 267.991730,552.570618 267.947388,553.909668 
	C269.364227,562.266602 270.781097,570.623596 272.149597,579.772156 
	C272.400299,580.727844 272.599487,581.700500 272.909393,582.636597 
	C277.919037,597.767944 282.942810,612.894653 288.024109,628.748901 
	C298.043365,652.280457 310.886017,674.162476 327.263977,693.802979 
	C334.230621,702.157288 341.912933,709.994263 349.872162,717.421021 
	C359.515259,726.419006 369.795685,734.734009 380.137299,743.892090 
	C383.741669,746.292725 387.346039,748.693420 390.978119,751.013184 
	C390.978119,751.013184 390.904541,751.056885 391.303253,751.600281 
	C420.884918,770.800415 452.936249,784.045776 487.564117,790.690002 
	C498.582031,792.804077 509.866974,793.526611 521.873169,795.053406 
	C536.883972,794.658325 551.894836,794.263245 567.711792,793.997681 
	C571.944336,793.373779 576.176880,792.749817 580.834473,792.719788 
	C582.920959,794.075378 585.076782,795.335999 587.082947,796.801514 
	C604.590332,809.590881 623.309204,820.282471 643.383240,828.428223 
	C654.230774,832.830078 665.376343,836.536011 676.515808,840.161499 
	C681.226929,841.694885 684.400635,838.379639 682.797546,834.040649 
	C679.673157,825.584167 676.323730,817.210876 673.067505,808.385254 
	C673.067505,808.385254 672.965515,807.980042 673.207703,807.431519 
	C672.516052,803.931213 671.824463,800.430847 671.072144,796.189026 
	C671.012085,795.449951 670.951965,794.710876 671.017578,793.131226 
	C671.193176,790.144287 671.453125,787.159424 671.529724,784.169983 
	C671.848083,771.749451 674.139648,760.256531 685.766113,753.002380 
	C685.995911,752.859009 686.037048,752.413147 686.065186,752.084534 
	C686.065186,752.084534 686.074707,752.187927 686.780945,752.041321 
	C695.642151,745.494202 704.503357,738.947144 713.210632,732.098267 
	C713.210632,732.098267 713.315796,732.420288 713.905518,732.215698 
	C714.650574,731.507507 715.395569,730.799255 716.045593,730.052734 
	C716.045593,730.052734 716.089905,730.145020 716.719177,729.889526 
	C727.488464,718.930298 738.257751,707.971069 748.996765,697.001465 
	C748.996765,697.001465 749.013672,697.029236 749.553772,696.690002 
	C750.419800,695.491394 751.285828,694.292786 752.052795,693.047913 
	C752.052795,693.047913 752.102539,693.145203 752.669128,692.812500 
	C755.788147,689.457825 754.264893,686.723999 751.380310,684.367798 
	C739.162903,674.388184 726.897888,664.466919 714.522888,654.445862 
	C714.522888,654.445862 714.422791,654.334839 714.093140,653.817932 
	C710.891174,651.172546 707.824158,648.337463 704.448792,645.935791 
	C701.137695,643.579590 697.512878,641.664246 694.003296,638.897217 
	C690.688171,632.607910 687.373108,626.318604 683.995361,619.910583 
	C685.388306,619.233337 686.415161,618.734131 688.868958,617.541138 
	C685.951843,616.806580 684.512573,616.444153 683.022522,616.068909 
	C683.983582,613.564880 687.661682,612.150146 684.999268,608.999207 
	C684.999268,608.999207 684.988647,608.988586 684.979858,608.218994 
	C684.310242,606.496948 683.593262,604.791626 682.980713,603.049500 
	C681.608948,599.148071 680.288086,595.228577 678.948547,591.315796 
	C678.524719,590.078003 677.362732,588.237244 677.802551,587.691956 
	C682.195496,582.246094 676.924683,581.861816 674.149109,579.836853 
	C672.802368,581.472595 671.663330,582.856018 670.680603,584.049622 
	C671.195007,585.875671 671.645508,587.475037 672.096069,589.074341 
	C671.637207,589.332947 671.178406,589.591553 670.719543,589.850220 
	C669.381348,588.182739 667.130127,586.647156 666.867004,584.824524 
	C665.860962,577.856934 665.494690,570.796936 665.172424,563.176514 
	C670.629150,556.694092 676.444641,550.474182 681.437195,543.652100 
	C686.022461,537.386536 684.948975,532.330383 679.458313,526.838196 
	C674.869019,522.247559 670.008850,517.813538 666.098694,512.678101 
	C650.582703,492.300079 644.614258,469.954407 652.684631,444.741180 
	C654.278259,439.762451 655.116882,434.251190 654.882019,429.049713 
	C654.569824,422.137421 652.862976,415.288116 652.083618,407.717133 
	C652.724121,405.809113 653.364685,403.901123 654.112305,402.264221 
	C654.194153,402.313934 654.276001,402.363678 654.357849,402.413422 
	C654.236267,402.277405 654.114685,402.141357 653.641052,401.478394 
	C652.941589,400.904114 652.242188,400.329834 652.083740,400.199707 
	C656.469116,399.279938 661.868164,399.563568 665.126404,397.060547 
	C668.300415,394.622223 676.022705,394.964508 673.537781,387.122070 
	C674.704529,387.597198 675.587036,387.956543 676.072632,388.154297 
	C677.192261,386.272797 678.224609,384.537842 679.836243,383.129974 
	C685.549011,389.769043 691.261780,396.408112 697.004517,403.006012 
	C697.004517,403.006012 696.956726,403.023071 697.214294,403.656403 
	C701.064392,407.398071 704.283936,405.002441 707.165527,402.369843 
	C722.829651,388.059235 738.395447,373.640930 754.020020,359.286835 
	C757.470337,356.117035 756.799133,353.308777 753.450195,350.760925 
	C753.450195,350.760925 753.425232,350.599792 753.284668,350.134949 
	C753.141357,349.808319 752.892334,349.627625 752.496704,349.499878 
	C752.496704,349.499878 752.510071,349.399200 752.287598,348.912384 
	C751.894592,348.555145 751.501587,348.197937 751.063171,347.940063 
	C751.063171,347.940063 751.162415,347.894470 750.923340,347.255157 
	C745.810791,341.691528 740.698303,336.127930 735.501465,330.584564 
	C735.501465,330.584564 735.437012,330.526611 735.285217,330.065704 
	C735.104797,329.764740 734.839905,329.598419 734.402161,329.547180 
	C734.402161,329.547180 734.429871,329.461060 734.271667,329.030304 
	C734.092834,328.753265 733.839294,328.598755 733.418335,328.544983 
	C733.418335,328.544983 733.428711,328.450256 733.276123,328.025482 
	C733.106445,327.746796 732.858887,327.594940 732.436462,327.547058 
	C732.436462,327.547058 732.429138,327.447662 732.282471,327.000671 
z"/>
<path fill="#5D399F" opacity="1.000000" stroke="none" 
	d="
M268.082703,553.028931 
	C267.991730,552.570618 267.900787,552.112366 268.289795,551.245544 
	C269.498993,549.612427 270.831696,548.397156 270.850769,547.161560 
	C270.924896,542.362244 270.803070,537.534851 270.335510,532.758850 
	C269.795349,527.241699 268.475037,521.789001 268.130524,516.268555 
	C267.854767,511.848877 268.446686,507.362732 268.815430,502.919525 
	C269.063110,499.935089 269.593475,496.974091 270.001801,494.371765 
	C270.097656,495.787933 270.189117,496.834961 270.280548,497.881989 
	C270.588776,497.814392 270.897034,497.746796 271.205261,497.679199 
	C270.804230,496.452362 270.403168,495.225494 269.988159,493.602692 
	C270.296326,490.429077 270.716095,487.658508 270.917145,484.872131 
	C271.203339,480.906219 270.726746,476.784027 271.639862,472.984253 
	C274.057343,462.924194 276.907318,452.960266 279.847595,443.035828 
	C282.727509,433.314972 285.310150,423.437225 289.121368,414.075378 
	C297.141632,394.374420 308.013733,376.191040 320.469116,358.949738 
	C321.261841,357.852448 321.343658,356.241638 321.756195,354.869690 
	C328.299072,347.456818 334.560089,339.768799 341.458374,332.702850 
	C349.533356,324.431610 358.144989,316.682587 366.570526,308.756653 
	C368.014526,307.398285 369.691895,306.288025 371.771545,305.183044 
	C376.894897,302.331757 381.597137,299.487274 386.082977,296.334778 
	C388.243286,294.816589 389.995575,292.717834 391.932617,290.881958 
	C391.932617,290.881958 391.965698,290.972626 392.309753,290.968903 
	C398.193573,288.100220 403.779968,285.321503 409.264740,282.354767 
	C428.574097,271.910309 448.923218,264.234314 470.209381,258.896759 
	C474.271210,257.878235 478.066315,255.796173 481.984497,254.204773 
	C494.000336,252.776566 506.016205,251.348373 518.734619,250.181244 
	C520.397888,250.527939 521.359863,250.699249 522.319275,250.686081 
	C533.243164,250.536148 544.195984,249.785599 555.082275,250.343124 
	C566.751892,250.940765 578.358765,252.762146 590.211182,254.300873 
	C591.621521,254.371872 592.813843,254.191452 594.006104,254.011047 
	C594.464294,254.009415 594.922424,254.007782 595.777466,254.468796 
	C597.593994,255.640244 598.940857,256.654297 600.443970,257.012329 
	C625.580505,262.999634 649.806946,271.406097 672.341187,284.216431 
	C679.105164,288.061615 685.612793,292.363037 692.184753,296.538971 
	C698.558533,300.588959 704.864014,304.746185 711.199524,308.856293 
	C711.199524,308.856293 711.082031,308.899628 711.203369,309.138275 
	C711.919739,309.562195 712.514648,309.747437 713.109619,309.932678 
	C713.109619,309.932678 713.034546,309.964355 713.143677,310.177856 
	C713.567566,310.563629 713.882446,310.735931 714.197266,310.908203 
	C714.197266,310.908203 714.090820,310.909119 714.094238,311.233643 
	C715.417297,312.362518 716.737000,313.166870 718.056702,313.971222 
	C718.056702,313.971222 718.003662,314.000488 718.037903,314.321930 
	C721.929626,319.274567 725.037048,324.757446 731.480591,326.452301 
	C731.480591,326.452301 731.434143,326.509644 731.402588,326.846313 
	C731.723755,327.271179 732.076477,327.359436 732.429138,327.447662 
	C732.429138,327.447662 732.436462,327.547058 732.407166,327.865479 
	C732.728149,328.272675 733.078430,328.361450 733.428711,328.450256 
	C733.428711,328.450256 733.418335,328.544983 733.397034,328.865173 
	C733.727112,329.277252 734.078491,329.369141 734.429871,329.461060 
	C734.429871,329.461060 734.402161,329.547180 734.388306,329.869049 
	C734.728577,330.302826 735.082825,330.414734 735.437012,330.526611 
	C735.437012,330.526611 735.501465,330.584564 735.379395,330.926575 
	C740.068909,336.768890 744.869568,342.278778 749.724365,347.740540 
	C749.961365,348.007233 750.672241,347.852783 751.162415,347.894470 
	C751.162415,347.894470 751.063171,347.940063 751.080322,348.233459 
	C751.568420,348.817627 752.039246,349.108398 752.510071,349.399170 
	C752.510071,349.399200 752.496704,349.499878 752.439941,349.850098 
	C752.730591,350.333466 753.077881,350.466614 753.425232,350.599792 
	C753.425232,350.599792 753.450195,350.760925 753.334473,351.032837 
	C754.614746,354.109253 753.940613,356.435944 751.725952,358.545807 
	C745.132629,364.827362 738.656860,371.233643 732.006042,377.453094 
	C723.908020,385.025970 715.694214,392.475555 707.497437,399.942169 
	C704.510376,402.663177 701.269287,404.733521 696.956726,403.023071 
	C696.956726,403.023071 697.004517,403.006012 696.994629,402.654205 
	C696.671570,401.384613 696.598389,400.257812 696.008667,399.580811 
	C688.620850,391.098633 681.188660,382.654114 673.655701,374.301086 
	C673.066772,373.648071 671.639954,373.750702 670.738892,373.403931 
	C670.875244,373.305756 670.573853,373.454254 670.643066,373.158539 
	C670.109741,372.643768 669.507202,372.424713 668.589355,372.076538 
	C660.467896,366.123505 652.661621,360.299652 644.870850,354.091797 
	C642.534119,352.518890 640.182007,351.330078 637.876892,350.126984 
	C637.923889,350.112732 637.898621,350.207642 637.817322,349.932281 
	C637.393860,349.549500 637.051697,349.442108 636.700073,349.365845 
	C636.690674,349.397034 636.626465,349.407745 636.646606,349.040497 
	C622.756531,339.319824 607.400574,333.306549 591.282104,329.070312 
	C590.858582,328.958984 590.327393,329.256775 589.810181,329.421234 
	C589.773926,329.478699 589.638916,329.493835 589.597046,329.109497 
	C580.062073,326.819031 570.637939,323.864319 561.061035,323.235657 
	C543.705444,322.096375 526.320618,322.990021 509.070953,325.950134 
	C493.008270,328.706512 477.388458,332.848236 462.468567,339.407715 
	C460.102814,340.447754 458.197723,342.535614 456.052826,344.097290 
	C456.026001,344.055511 456.121277,344.083282 455.727661,344.058716 
	C454.251892,344.741150 453.169678,345.448181 452.064209,346.112183 
	C452.040924,346.069122 452.135956,346.092468 451.809052,346.086914 
	C451.007538,346.449127 450.532928,346.816864 450.055481,347.137878 
	C450.052612,347.091156 450.142365,347.117950 449.772430,347.077148 
	C448.741547,347.516083 448.080597,347.995819 447.374512,348.510986 
	C447.329376,348.546387 447.273010,348.646332 446.955505,348.447632 
	C445.837769,348.956085 445.037537,349.663177 444.165070,350.330322 
	C444.092834,350.290375 444.257690,350.299042 443.911957,350.223633 
	C443.164062,350.585388 442.761932,351.022583 442.251801,351.359558 
	C442.143799,351.259277 442.314423,351.499603 441.955017,351.353638 
	C436.085632,354.630005 430.544220,358.004089 425.107849,361.539673 
	C424.473022,361.952515 424.418274,363.257294 424.075745,364.109192 
	C424.056915,364.069855 424.143250,364.057190 423.891479,364.138763 
	C423.430603,364.494507 423.221497,364.768707 423.007812,365.019379 
	C423.003204,364.995880 423.043945,365.021088 422.669312,365.019348 
	C421.229370,366.064209 420.164062,367.110748 419.071991,368.111053 
	C419.045227,368.064789 419.146027,368.100525 418.808411,368.093872 
	C418.089172,368.533264 417.707550,368.979279 417.352905,369.430908 
	C417.379913,369.436523 417.377380,369.491608 417.022156,369.352142 
	C413.479828,372.526215 410.292725,375.839752 407.088135,379.100739 
	C407.070648,379.048187 407.163788,379.108185 406.805786,379.095093 
	C398.091125,384.764526 392.567200,392.932007 387.150208,401.178314 
	C386.845917,401.641510 387.097778,402.470001 387.068359,403.080933 
	C387.045959,403.033386 387.139099,403.082184 386.772339,403.096283 
	C385.961731,404.110962 385.517914,405.111542 385.051788,406.068695 
	C385.029480,406.025269 385.117462,406.067657 384.756897,406.071289 
	C382.252441,408.897430 379.647156,411.484436 378.061279,414.591705 
	C374.803070,420.975708 372.090485,427.638184 369.139496,434.133270 
	C369.125641,434.080475 369.233215,434.099030 368.877869,434.193054 
	C368.087341,434.771973 367.488892,435.185333 367.240692,435.752106 
	C359.630096,453.130402 354.683472,471.258728 352.034485,490.465271 
	C352.017273,492.933929 352.007904,494.968018 351.734253,497.208252 
	C351.323151,498.284790 351.176331,499.155121 351.022705,500.477966 
	C351.018646,512.945618 351.021362,524.960876 351.114502,537.200562 
	C351.389099,537.710449 351.645599,537.895691 352.048157,538.158936 
	C352.121887,538.337219 352.105927,538.722595 352.069885,539.196716 
	C352.438721,555.523621 355.993225,570.743225 361.331879,585.592773 
	C366.835571,600.901428 373.334320,615.739014 382.601135,629.206055 
	C383.549103,630.583618 385.113525,631.536926 386.356964,632.775269 
	C386.322021,632.863342 386.408325,632.680725 386.294495,633.044312 
	C387.519409,634.893799 388.858215,636.379578 390.153809,637.906128 
	C390.110626,637.946838 390.130890,637.829895 390.112976,638.198059 
	C393.411652,643.223206 396.577942,647.999573 400.128540,652.470703 
	C401.326965,653.979858 403.499573,654.715393 405.187439,655.837463 
	C405.147888,655.870422 405.131500,655.768799 405.198914,656.045837 
	C405.580597,656.512329 405.894897,656.701843 406.158325,656.884949 
	C406.107422,656.878601 406.163940,656.792969 406.144867,657.156067 
	C406.839508,657.984802 407.553223,658.450500 408.466705,658.982910 
	C408.923553,659.214661 409.060791,659.449646 409.164551,660.027588 
	C409.556030,660.514038 409.861176,660.727661 410.115753,660.931030 
	C410.065186,660.920715 410.113312,660.829407 410.102295,661.188110 
	C413.026978,665.548523 415.477509,670.124268 421.093292,670.912720 
	C421.039825,670.932983 421.103973,670.838318 421.096313,671.210938 
	C422.174347,672.241699 423.260040,672.899841 424.355499,673.597046 
	C424.365234,673.636108 424.290222,673.606689 424.324097,673.942139 
	C424.956177,674.481018 425.554443,674.684509 426.097534,674.908325 
	C426.042389,674.928711 426.110809,674.833069 426.096558,675.206421 
	C427.167755,676.211914 428.253143,676.843994 429.331116,677.513184 
	C429.323730,677.550232 429.386261,677.592590 429.356781,677.954224 
	C436.390808,683.136536 443.350342,688.121643 450.574310,692.688416 
	C453.097687,694.283691 456.272888,694.847900 459.093994,695.897522 
	C459.037567,695.912109 459.113373,695.823547 459.114136,696.188721 
	C469.822510,703.403076 481.419250,707.954590 494.372375,709.963196 
	C504.889557,711.323059 515.004150,712.760620 525.231079,714.374939 
	C525.564941,714.726562 525.810120,714.857422 526.340210,714.964355 
	C526.767639,715.039185 526.933655,715.093872 527.402100,715.419800 
	C548.268250,716.719788 568.735107,716.328918 588.815491,711.100464 
	C590.987000,710.535034 592.930359,709.093323 595.290222,707.857910 
	C617.590027,700.640625 637.544006,689.751221 656.152954,676.150513 
	C657.173828,675.502319 658.002258,674.639709 658.893982,673.814148 
	C658.957336,673.851135 658.811340,673.836609 659.154053,673.865479 
	C659.849182,673.443115 660.201538,672.991821 660.586060,672.504028 
	C660.618225,672.467468 660.624207,672.370239 660.962646,672.556213 
	C663.516602,670.436707 665.732178,668.131226 668.064941,665.553589 
	C669.063477,664.506897 669.944763,663.732361 671.086914,662.850464 
	C671.550598,662.435425 671.753418,662.127808 672.018921,661.611450 
	C672.250305,661.140442 672.489319,660.988892 673.064514,660.854370 
	C673.535461,660.456177 673.740601,660.151672 673.939209,659.892700 
	C673.932800,659.938171 673.849487,659.899353 674.212769,659.905518 
	C675.335449,658.878052 676.094971,657.844421 676.875854,656.855835 
	C676.897156,656.900940 676.797363,656.900696 677.072021,656.823486 
	C677.523560,656.424377 677.700317,656.102539 677.862854,655.830811 
	C677.848633,655.880859 677.772400,655.809875 678.133301,655.853577 
	C682.316772,653.180786 686.736816,650.984009 687.509705,645.578064 
	C687.549866,645.576477 687.544128,645.656616 687.883789,645.645386 
	C688.452271,645.043213 688.681091,644.452271 688.926147,643.909302 
	C688.942322,643.957275 688.852783,643.909973 689.218323,643.911255 
	C693.546875,639.815125 696.895569,641.893188 700.319763,644.838501 
	C703.913391,647.929688 707.621643,650.895081 711.396912,653.761169 
	C712.128845,654.316833 713.400269,654.161926 714.422791,654.334839 
	C714.422791,654.334839 714.522888,654.445862 714.413086,654.828857 
	C714.423462,655.676941 714.386902,656.333130 714.686829,656.579590 
	C723.889648,664.139343 733.323425,671.433411 742.269897,679.283203 
	C746.522034,683.014221 753.910645,684.961365 752.102539,693.145203 
	C752.102539,693.145203 752.052795,693.047913 751.731567,693.067505 
	C750.611450,694.401123 749.812561,695.715210 749.013672,697.029236 
	C749.013672,697.029236 748.996765,697.001465 748.664429,697.033081 
	C747.039185,698.058228 745.622192,698.926392 744.473389,700.065247 
	C736.013367,708.451721 727.569092,716.855042 719.222717,725.354126 
	C717.911743,726.689087 717.121155,728.535278 716.089905,730.145020 
	C716.089905,730.145020 716.045593,730.052734 715.737549,730.065430 
	C714.724915,730.858826 714.020325,731.639587 713.315796,732.420288 
	C713.315796,732.420288 713.210632,732.098267 712.919800,732.143616 
	C706.730591,736.314087 700.755188,740.334900 694.964600,744.606201 
	C691.838196,746.912292 689.027710,749.646729 686.074707,752.187927 
	C686.074707,752.187927 686.065186,752.084534 685.753174,752.084045 
	C674.522888,757.316650 671.196289,767.095093 670.038391,778.073425 
	C669.477417,783.391846 667.351257,788.851929 670.891907,793.971802 
	C670.951965,794.710876 671.012085,795.449951 670.807678,796.792114 
	C671.350647,800.923462 672.158081,804.451721 672.965515,807.980042 
	C672.965515,807.980042 673.067505,808.385254 673.041626,809.029175 
	C673.479248,812.073975 673.674561,814.566711 674.459717,816.857361 
	C676.337891,822.336670 678.611816,827.681213 680.456238,833.170715 
	C680.929077,834.577942 680.805908,836.529053 680.148071,837.817444 
	C679.850159,838.400879 677.470276,838.326782 676.215881,837.949524 
	C668.671448,835.680481 660.970154,833.742249 653.717773,830.736694 
	C641.974792,825.870239 630.216370,820.857361 619.063171,814.803406 
	C608.031189,808.815369 597.778992,801.399597 587.091187,794.760803 
	C585.090332,793.518005 582.648010,792.986023 580.409424,792.125977 
	C576.176880,792.749817 571.944336,793.373779 567.012695,793.661865 
	C564.498169,793.227722 562.680176,793.010803 560.867676,793.050232 
	C548.585327,793.317322 536.304077,793.638489 523.715942,793.664673 
	C514.362366,792.543823 505.181335,792.410889 496.292114,790.732300 
	C460.809906,784.032227 427.189209,772.201294 396.391327,752.975830 
	C394.787903,751.974915 392.743561,751.680359 390.904541,751.056885 
	C390.904541,751.056885 390.978119,751.013184 390.953552,750.698120 
	C387.723022,747.695557 384.530670,744.990967 381.264618,742.378479 
	C381.124054,742.266052 380.303894,743.003235 379.800323,743.344604 
	C369.795685,734.734009 359.515259,726.419006 349.872162,717.421021 
	C341.912933,709.994263 334.230621,702.157288 327.263977,693.802979 
	C310.886017,674.162476 298.043365,652.280457 288.273499,628.171753 
	C287.313812,623.754883 286.118317,619.910950 284.893219,616.076416 
	C280.942993,603.712585 276.981903,591.352295 273.030579,578.561035 
	C272.290222,571.268372 271.679138,564.385925 270.698364,557.556580 
	C270.468353,555.955139 268.987885,554.533386 268.082703,553.028931 
z"/>
<path fill="#EC3681" opacity="1.000000" stroke="none" 
	d="
M651.755371,408.411713 
	C652.862976,415.288116 654.569824,422.137421 654.882019,429.049713 
	C655.116882,434.251190 654.278259,439.762451 652.684631,444.741180 
	C644.614258,469.954407 650.582703,492.300079 666.098694,512.678101 
	C670.008850,517.813538 674.869019,522.247559 679.458313,526.838196 
	C684.948975,532.330383 686.022461,537.386536 681.437195,543.652100 
	C676.444641,550.474182 670.629150,556.694092 664.708618,563.705566 
	C664.118469,567.932983 663.118408,571.865723 664.035278,575.284363 
	C666.449463,584.285339 665.894531,592.141663 658.065796,598.228088 
	C662.995361,603.832214 663.289307,607.456177 659.435242,613.599548 
	C658.640320,614.866516 657.961670,616.387207 656.815308,617.222595 
	C650.715027,621.667786 650.082947,627.820068 650.947937,634.575073 
	C651.222473,636.718689 651.081116,638.918579 651.394531,641.053833 
	C652.598267,649.255188 650.290955,656.483154 644.319824,661.966797 
	C638.964844,666.884644 633.314941,671.919128 626.919189,675.188660 
	C601.593506,688.135132 574.472778,694.084839 546.024780,694.110474 
	C542.706299,694.113464 541.545593,692.806213 541.676575,689.666382 
	C541.856995,685.339966 541.812012,681.004517 541.960388,676.676208 
	C542.516479,660.457275 557.567627,645.179688 573.829468,645.533447 
	C583.209229,645.737488 592.531799,648.025757 601.907410,649.147522 
	C608.810425,649.973450 615.825989,651.347168 622.669373,650.837646 
	C633.225159,650.051575 638.844727,642.536011 638.082642,632.009033 
	C637.770691,627.700378 637.151245,623.413025 636.633789,619.120483 
	C636.090820,614.615112 637.317444,610.912354 641.239014,608.289856 
	C643.886597,606.519348 645.862549,604.337891 644.681152,600.800293 
	C643.458801,597.140381 640.892212,595.029480 637.074707,594.453369 
	C635.820496,594.264099 634.562927,594.096924 633.306885,593.919617 
	C633.332397,593.323853 633.357910,592.728088 633.383423,592.132324 
	C635.647888,592.004822 637.910828,591.821899 640.177124,591.760010 
	C647.465393,591.560730 650.827820,587.550293 649.546936,580.355347 
	C649.169189,578.233582 648.604187,576.111145 647.838440,574.098022 
	C643.890015,563.717957 642.638489,564.278992 653.952332,558.365662 
	C662.374878,553.963562 663.726318,548.018982 657.825500,540.505615 
	C653.713318,535.269653 649.204102,530.346130 644.891235,525.266968 
	C635.442810,514.139954 629.362549,501.691803 629.605042,486.700806 
	C629.769287,476.545532 629.779358,466.387787 629.878296,456.231384 
	C630.001221,443.615479 626.926208,431.809021 620.722046,420.857086 
	C618.758850,417.391632 616.354553,414.176117 613.726807,410.203217 
	C604.464905,457.865936 581.196777,494.746643 540.753723,520.174866 
	C530.743835,526.468506 520.416687,532.339844 510.883484,539.293762 
	C484.387817,558.620850 471.129974,584.523071 474.312592,617.716797 
	C476.712494,642.747864 486.123138,665.040222 502.019379,684.563721 
	C503.059448,685.841125 504.017944,687.184937 505.553528,689.208252 
	C503.710236,688.974121 503.041016,688.974854 502.422394,688.798340 
	C466.566864,678.569519 435.635864,660.450256 412.199158,631.025513 
	C395.654907,610.254211 383.122070,587.352905 378.674194,560.689209 
	C376.961914,550.424561 373.923981,540.253052 373.396149,529.941589 
	C371.428711,491.505646 380.375305,455.777924 400.818939,422.827881 
	C441.515167,357.235596 518.870789,335.245453 579.375488,350.001953 
	C612.674744,358.123260 639.343384,374.424957 651.755371,408.411713 
z"/>
<path fill="#EBEBEA" opacity="1.000000" stroke="none" 
	d="
M651.919495,408.064423 
	C639.343384,374.424957 612.674744,358.123260 579.375488,350.001953 
	C518.870789,335.245453 441.515167,357.235596 400.818939,422.827881 
	C380.375305,455.777924 371.428711,491.505646 373.396149,529.941589 
	C373.923981,540.253052 376.961914,550.424561 378.674194,560.689209 
	C383.122070,587.352905 395.654907,610.254211 412.199158,631.025513 
	C435.635864,660.450256 466.566864,678.569519 502.422394,688.798340 
	C503.041016,688.974854 503.710236,688.974121 505.553528,689.208252 
	C504.017944,687.184937 503.059448,685.841125 502.019379,684.563721 
	C486.123138,665.040222 476.712494,642.747864 474.312592,617.716797 
	C471.129974,584.523071 484.387817,558.620850 510.883484,539.293762 
	C520.416687,532.339844 530.743835,526.468506 540.753723,520.174866 
	C581.196777,494.746643 604.464905,457.865936 613.726807,410.203217 
	C616.354553,414.176117 618.758850,417.391632 620.722046,420.857086 
	C626.926208,431.809021 630.001221,443.615479 629.878296,456.231384 
	C629.779358,466.387787 629.769287,476.545532 629.605042,486.700806 
	C629.362549,501.691803 635.442810,514.139954 644.891235,525.266968 
	C649.204102,530.346130 653.713318,535.269653 657.825500,540.505615 
	C663.726318,548.018982 662.374878,553.963562 653.952332,558.365662 
	C642.638489,564.278992 643.890015,563.717957 647.838440,574.098022 
	C648.604187,576.111145 649.169189,578.233582 649.546936,580.355347 
	C650.827820,587.550293 647.465393,591.560730 640.177124,591.760010 
	C637.910828,591.821899 635.647888,592.004822 633.383423,592.132324 
	C633.357910,592.728088 633.332397,593.323853 633.306885,593.919617 
	C634.562927,594.096924 635.820496,594.264099 637.074707,594.453369 
	C640.892212,595.029480 643.458801,597.140381 644.681152,600.800293 
	C645.862549,604.337891 643.886597,606.519348 641.239014,608.289856 
	C637.317444,610.912354 636.090820,614.615112 636.633789,619.120483 
	C637.151245,623.413025 637.770691,627.700378 638.082642,632.009033 
	C638.844727,642.536011 633.225159,650.051575 622.669373,650.837646 
	C615.825989,651.347168 608.810425,649.973450 601.907410,649.147522 
	C592.531799,648.025757 583.209229,645.737488 573.829468,645.533447 
	C557.567627,645.179688 542.516479,660.457275 541.960388,676.676208 
	C541.812012,681.004517 541.856995,685.339966 541.676575,689.666382 
	C541.545593,692.806213 542.706299,694.113464 546.024780,694.110474 
	C574.472778,694.084839 601.593506,688.135132 626.919189,675.188660 
	C633.314941,671.919128 638.964844,666.884644 644.319824,661.966797 
	C650.290955,656.483154 652.598267,649.255188 651.394531,641.053833 
	C651.081116,638.918579 651.222473,636.718689 650.947937,634.575073 
	C650.082947,627.820068 650.715027,621.667786 656.815308,617.222595 
	C657.961670,616.387207 658.640320,614.866516 659.435242,613.599548 
	C663.289307,607.456177 662.995361,603.832214 658.065796,598.228088 
	C665.894531,592.141663 666.449463,584.285339 664.035278,575.284363 
	C663.118408,571.865723 664.118469,567.932983 664.567139,564.003052 
	C665.494690,570.796936 665.860962,577.856934 666.867004,584.824524 
	C667.130127,586.647156 669.381348,588.182739 670.719543,589.850220 
	C671.178406,589.591553 671.637207,589.332947 672.096069,589.074341 
	C671.645508,587.475037 671.195007,585.875671 670.680603,584.049622 
	C671.663330,582.856018 672.802368,581.472595 674.149109,579.836853 
	C676.924683,581.861816 682.195496,582.246094 677.802551,587.691956 
	C677.362732,588.237244 678.524719,590.078003 678.948547,591.315796 
	C680.288086,595.228577 681.608948,599.148071 682.980713,603.049500 
	C683.593262,604.791626 684.310242,606.496948 684.740601,608.612305 
	C684.224365,609.130493 683.947327,609.255432 683.670349,609.380432 
	C683.759460,609.506226 683.920105,609.746033 683.927490,609.741394 
	C684.295715,609.510742 684.650696,609.259094 685.007202,609.009766 
	C687.661682,612.150146 683.983582,613.564880 683.022522,616.068909 
	C684.512573,616.444153 685.951843,616.806580 688.868958,617.541138 
	C686.415161,618.734131 685.388306,619.233337 683.995361,619.910583 
	C687.373108,626.318604 690.688171,632.607910 693.690918,639.377075 
	C691.869934,641.207947 690.361328,642.558960 688.852783,643.909973 
	C688.852783,643.909973 688.942322,643.957275 688.653931,644.043518 
	C688.091675,644.638733 687.817871,645.147644 687.544067,645.656616 
	C687.544128,645.656616 687.549866,645.576477 687.215515,645.682800 
	C683.844910,649.129333 680.808655,652.469604 677.772400,655.809875 
	C677.772400,655.809875 677.848633,655.880859 677.602417,655.924316 
	C677.169922,656.278748 676.983643,656.589722 676.797363,656.900696 
	C676.797363,656.900696 676.897156,656.900940 676.594849,656.993958 
	C675.478210,658.024414 674.663879,658.961914 673.849487,659.899414 
	C673.849487,659.899353 673.932800,659.938171 673.679077,659.995117 
	C673.216492,660.350708 673.007568,660.649353 672.798584,660.948059 
	C672.489319,660.988892 672.250305,661.140442 671.769165,661.733887 
	C671.246521,662.362610 671.036316,662.660278 670.826111,662.957886 
	C669.944763,663.732361 669.063477,664.506897 667.755615,665.689819 
	C665.094116,668.188904 662.859131,670.279602 660.624207,672.370239 
	C660.624207,672.370239 660.618225,672.467468 660.309326,672.546936 
	C659.604004,673.029785 659.207703,673.433228 658.811340,673.836609 
	C658.811340,673.836609 658.957336,673.851135 658.602539,673.901855 
	C657.485291,674.613831 656.722839,675.274963 655.960449,675.936157 
	C637.544006,689.751221 617.590027,700.640625 594.900146,707.907104 
	C586.580994,709.764832 579.029968,712.141418 571.329651,712.816895 
	C556.631226,714.106323 541.847839,714.426208 527.099670,715.148560 
	C526.933655,715.093872 526.767639,715.039185 526.247986,714.756226 
	C525.727173,714.203308 525.468628,714.093384 525.118774,714.198242 
	C515.004150,712.760620 504.889557,711.323059 494.136475,709.719177 
	C492.865784,709.072632 492.302704,708.411316 491.590912,708.139160 
	C480.776520,704.003967 469.942657,699.919739 459.113373,695.823547 
	C459.113373,695.823547 459.037567,695.912109 458.881042,695.631592 
	C448.945068,689.431641 439.165649,683.512146 429.386261,677.592590 
	C429.386261,677.592590 429.323730,677.550232 429.194214,677.257446 
	C428.080078,676.254089 427.095459,675.543579 426.110809,674.833069 
	C426.110809,674.833069 426.042389,674.928711 425.941101,674.656250 
	C425.323273,674.124695 424.806732,673.865723 424.290222,673.606689 
	C424.290222,673.606689 424.365234,673.636108 424.218018,673.329590 
	C423.081879,672.294739 422.092926,671.566528 421.104004,670.838318 
	C421.103973,670.838318 421.039825,670.932983 420.925110,670.624268 
	C417.244690,667.153564 413.678986,663.991455 410.113312,660.829407 
	C410.113312,660.829407 410.065186,660.920715 410.020386,660.665527 
	C409.676453,660.191772 409.377350,659.973206 409.078217,659.754700 
	C409.060791,659.449646 408.923553,659.214661 408.334167,658.706299 
	C407.389252,657.839600 406.776611,657.316284 406.163940,656.792969 
	C406.163940,656.792969 406.107422,656.878601 406.064819,656.625366 
	C405.725311,656.171021 405.428406,655.969910 405.131500,655.768799 
	C405.131500,655.768799 405.147888,655.870422 405.048553,655.533752 
	C400.009766,649.408020 395.070312,643.618958 390.130890,637.829895 
	C390.130890,637.829895 390.110626,637.946838 390.056946,637.587708 
	C388.804932,635.712646 387.606628,634.196655 386.408325,632.680725 
	C386.408325,632.680725 386.322021,632.863342 386.270355,632.440491 
	C368.341644,605.340027 357.751648,575.965820 353.634186,544.177734 
	C353.394104,542.324463 352.627502,540.539429 352.105927,538.722595 
	C352.105927,538.722595 352.121887,538.337219 352.090515,537.902710 
	C352.007019,537.303040 351.954834,537.137878 351.963623,536.599365 
	C352.079071,525.266479 352.133514,514.306946 352.331299,503.161865 
	C352.619934,502.652191 352.570404,502.361267 352.466858,501.781616 
	C352.616241,500.995392 352.624878,500.531097 352.772461,499.794067 
	C352.932831,498.357697 352.954315,497.194092 353.061096,495.657959 
	C353.337433,493.537048 353.528503,491.788666 353.887207,489.680786 
	C354.340424,487.525787 354.445892,485.679047 354.939575,483.942657 
	C359.666656,467.317444 364.459351,450.710938 369.233215,434.099030 
	C369.233215,434.099030 369.125641,434.080475 369.433502,433.953827 
	C374.866730,424.574005 379.992096,415.320831 385.117462,406.067657 
	C385.117462,406.067657 385.029480,406.025269 385.311646,405.895416 
	C386.108917,404.871124 386.624023,403.976654 387.139099,403.082184 
	C387.139099,403.082184 387.045959,403.033386 387.349915,402.898010 
	C394.157135,394.877838 400.660461,386.993011 407.163788,379.108185 
	C407.163788,379.108185 407.070648,379.048187 407.388245,378.950439 
	C410.929688,375.732330 414.153534,372.611969 417.377380,369.491608 
	C417.377380,369.491608 417.379913,369.436523 417.639496,369.373810 
	C418.314728,368.907562 418.730377,368.504028 419.145996,368.100525 
	C419.146027,368.100525 419.045227,368.064789 419.373352,368.005859 
	C420.815643,366.971649 421.929810,365.996368 423.043945,365.021088 
	C423.043945,365.021088 423.003204,364.995880 423.263367,364.943237 
	C423.730103,364.612793 423.936676,364.334991 424.143250,364.057190 
	C424.143250,364.057190 424.056915,364.069855 424.397491,363.990540 
	C430.596863,359.774017 436.455627,355.636810 442.314392,351.499573 
	C442.314423,351.499603 442.143799,351.259277 442.541687,351.327393 
	C443.378937,351.030029 443.818298,350.664520 444.257690,350.299042 
	C444.257690,350.299042 444.092834,350.290375 444.469482,350.276794 
	C445.655090,349.724243 446.464050,349.185303 447.273010,348.646362 
	C447.273010,348.646332 447.329376,348.546387 447.682373,348.490723 
	C448.737701,347.996033 449.440033,347.557007 450.142365,347.117981 
	C450.142365,347.117950 450.052612,347.091156 450.358582,347.092560 
	C451.155029,346.760132 451.645477,346.426300 452.135956,346.092468 
	C452.135956,346.092468 452.040924,346.069122 452.389557,346.052246 
	C453.865875,345.384644 454.993591,344.733948 456.121277,344.083282 
	C456.121277,344.083282 456.026001,344.055511 456.416382,344.033386 
	C483.147064,331.363739 510.974701,325.183228 540.145264,324.772064 
	C556.820312,324.537018 573.411316,325.084686 589.638916,329.493835 
	C589.638916,329.493835 589.773926,329.478699 589.981689,329.718903 
	C600.043640,333.749176 609.962708,337.380951 619.727173,341.389404 
	C625.486877,343.753754 631.001587,346.714966 636.626465,349.407745 
	C636.626465,349.407745 636.690674,349.397034 636.775879,349.628906 
	C637.206909,349.976379 637.552734,350.092010 637.898621,350.207642 
	C637.898621,350.207642 637.923889,350.112732 638.080322,350.398193 
	C640.442932,351.947723 642.649170,353.211761 644.855408,354.475830 
	C652.661621,360.299652 660.467896,366.123505 668.727783,372.314453 
	C669.645630,372.939087 670.109741,373.196686 670.573853,373.454285 
	C670.573853,373.454254 670.875244,373.305756 670.858643,373.689850 
	C672.920959,376.240295 674.999817,378.406616 677.166626,380.873932 
	C677.567444,381.434418 677.880188,381.693939 678.115112,381.945190 
	C678.037170,381.936920 678.074402,381.784729 678.170593,382.055908 
	C678.583252,382.526581 678.899780,382.726074 679.197021,382.885132 
	C679.177673,382.844666 679.257019,382.802917 679.257019,382.802917 
	C678.224609,384.537842 677.192261,386.272797 676.072632,388.154297 
	C675.587036,387.956543 674.704529,387.597198 673.537781,387.122070 
	C676.022705,394.964508 668.300415,394.622223 665.126404,397.060547 
	C661.868164,399.563568 656.469116,399.279938 652.083740,400.199707 
	C652.242188,400.329834 652.941589,400.904114 653.820557,401.739197 
	C654.000000,402.000000 654.005188,401.993103 654.005188,401.993103 
	C653.364685,403.901123 652.724121,405.809113 651.919495,408.064423 
z"/>
<path fill="#53358D" opacity="1.000000" stroke="none" 
	d="
M269.997375,494.002625 
	C269.593475,496.974091 269.063110,499.935089 268.815430,502.919525 
	C268.446686,507.362732 267.854767,511.848877 268.130524,516.268555 
	C268.475037,521.789001 269.795349,527.241699 270.335510,532.758850 
	C270.803070,537.534851 270.924896,542.362244 270.850769,547.161560 
	C270.831696,548.397156 269.498993,549.612427 268.397095,550.907715 
	C263.475128,525.944031 265.182648,500.841949 269.117981,476.079529 
	C275.371185,436.732727 289.873047,400.340607 312.426788,367.326935 
	C315.242706,363.205078 318.265015,359.224213 321.473938,355.023865 
	C321.343658,356.241638 321.261841,357.852448 320.469116,358.949738 
	C308.013733,376.191040 297.141632,394.374420 289.121368,414.075378 
	C285.310150,423.437225 282.727509,433.314972 279.847595,443.035828 
	C276.907318,452.960266 274.057343,462.924194 271.639862,472.984253 
	C270.726746,476.784027 271.203339,480.906219 270.917145,484.872131 
	C270.716095,487.658508 270.296326,490.429077 269.987122,493.603363 
	C270.000000,494.000000 269.997406,494.002625 269.997375,494.002625 
M268.303619,542.343201 
	C268.637024,542.996155 268.970459,543.649170 269.701294,545.080444 
	C269.831207,543.613708 270.102173,542.916992 269.869812,542.502258 
	C269.644806,542.100769 268.902039,541.989380 268.303619,542.343201 
z"/>
<path fill="#53358D" opacity="1.000000" stroke="none" 
	d="
M580.621948,792.422852 
	C582.648010,792.986023 585.090332,793.518005 587.091187,794.760803 
	C597.778992,801.399597 608.031189,808.815369 619.063171,814.803406 
	C630.216370,820.857361 641.974792,825.870239 653.717773,830.736694 
	C660.970154,833.742249 668.671448,835.680481 676.215881,837.949524 
	C677.470276,838.326782 679.850159,838.400879 680.148071,837.817444 
	C680.805908,836.529053 680.929077,834.577942 680.456238,833.170715 
	C678.611816,827.681213 676.337891,822.336670 674.459717,816.857361 
	C673.674561,814.566711 673.479248,812.073975 673.041626,809.238098 
	C676.323730,817.210876 679.673157,825.584167 682.797546,834.040649 
	C684.400635,838.379639 681.226929,841.694885 676.515808,840.161499 
	C665.376343,836.536011 654.230774,832.830078 643.383240,828.428223 
	C623.309204,820.282471 604.590332,809.590881 587.082947,796.801514 
	C585.076782,795.335999 582.920959,794.075378 580.621948,792.422852 
z"/>
<path fill="#53358D" opacity="1.000000" stroke="none" 
	d="
M391.103882,751.328613 
	C392.743561,751.680359 394.787903,751.974915 396.391327,752.975830 
	C427.189209,772.201294 460.809906,784.032227 496.292114,790.732300 
	C505.181335,792.410889 514.362366,792.543823 523.385437,793.688477 
	C522.584290,794.288513 521.807007,794.587219 521.029724,794.885986 
	C509.866974,793.526611 498.582031,792.804077 487.564117,790.690002 
	C452.936249,784.045776 420.884918,770.800415 391.103882,751.328613 
z"/>
<path fill="#53358D" opacity="1.000000" stroke="none" 
	d="
M711.090698,308.539734 
	C704.864014,304.746185 698.558533,300.588959 692.184753,296.538971 
	C685.612793,292.363037 679.105164,288.061615 672.341187,284.216431 
	C649.806946,271.406097 625.580505,262.999634 600.443970,257.012329 
	C598.940857,256.654297 597.593994,255.640244 596.101746,254.587860 
	C637.737976,262.628662 675.230652,280.170013 708.813843,306.192749 
	C709.593079,306.796570 710.261658,307.543182 711.090698,308.539734 
z"/>
<path fill="#53358D" opacity="1.000000" stroke="none" 
	d="
M481.586731,254.191132 
	C478.066315,255.796173 474.271210,257.878235 470.209381,258.896759 
	C448.923218,264.234314 428.574097,271.910309 409.264740,282.354767 
	C403.779968,285.321503 398.193573,288.100220 392.268066,290.944550 
	C414.297272,275.843964 438.920685,265.658173 464.745758,258.187164 
	C470.160339,256.620758 475.704529,255.502350 481.586731,254.191132 
z"/>
<path fill="#53358D" opacity="1.000000" stroke="none" 
	d="
M697.085510,403.339722 
	C701.269287,404.733521 704.510376,402.663177 707.497437,399.942169 
	C715.694214,392.475555 723.908020,385.025970 732.006042,377.453094 
	C738.656860,371.233643 745.132629,364.827362 751.725952,358.545807 
	C753.940613,356.435944 754.614746,354.109253 753.356873,350.954468 
	C756.799133,353.308777 757.470337,356.117035 754.020020,359.286835 
	C738.395447,373.640930 722.829651,388.059235 707.165527,402.369843 
	C704.283936,405.002441 701.064392,407.398071 697.085510,403.339722 
z"/>
<path fill="#3A1B77" opacity="1.000000" stroke="none" 
	d="
M589.993042,254.049469 
	C578.358765,252.762146 566.751892,250.940765 555.082275,250.343124 
	C544.195984,249.785599 533.243164,250.536148 522.319275,250.686081 
	C521.359863,250.699249 520.397888,250.527939 519.173645,250.153809 
	C519.589111,249.534973 520.266541,248.920242 520.947266,248.916550 
	C532.738037,248.852371 544.561523,248.317001 556.310913,249.014435 
	C567.631897,249.686401 578.876282,251.648956 590.419312,253.318298 
	C590.488953,253.797577 590.258545,253.950043 589.993042,254.049469 
z"/>
<path fill="#53358D" opacity="1.000000" stroke="none" 
	d="
M752.385864,692.978882 
	C753.910645,684.961365 746.522034,683.014221 742.269897,679.283203 
	C733.323425,671.433411 723.889648,664.139343 714.686829,656.579590 
	C714.386902,656.333130 714.423462,655.676941 714.476685,654.868042 
	C726.897888,664.466919 739.162903,674.388184 751.380310,684.367798 
	C754.264893,686.723999 755.788147,689.457825 752.385864,692.978882 
z"/>
<path fill="#53358D" opacity="1.000000" stroke="none" 
	d="
M273.024994,578.990601 
	C276.981903,591.352295 280.942993,603.712585 284.893219,616.076416 
	C286.118317,619.910950 287.313812,623.754883 288.243103,627.808472 
	C282.942810,612.894653 277.919037,597.767944 272.909393,582.636597 
	C272.599487,581.700500 272.400299,580.727844 272.380585,579.373535 
	C272.611572,578.974854 273.024994,578.990601 273.024994,578.990601 
z"/>
<path fill="#53358D" opacity="1.000000" stroke="none" 
	d="
M716.404541,730.017273 
	C717.121155,728.535278 717.911743,726.689087 719.222717,725.354126 
	C727.569092,716.855042 736.013367,708.451721 744.473389,700.065247 
	C745.622192,698.926392 747.039185,698.058228 748.679565,697.038330 
	C738.257751,707.971069 727.488464,718.930298 716.404541,730.017273 
z"/>
<path fill="#53358D" opacity="1.000000" stroke="none" 
	d="
M670.954712,793.551514 
	C667.351257,788.851929 669.477417,783.391846 670.038391,778.073425 
	C671.196289,767.095093 674.522888,757.316650 685.803650,752.095947 
	C686.037048,752.413147 685.995911,752.859009 685.766113,753.002380 
	C674.139648,760.256531 671.848083,771.749451 671.529724,784.169983 
	C671.453125,787.159424 671.193176,790.144287 670.954712,793.551514 
z"/>
<path fill="#53358D" opacity="1.000000" stroke="none" 
	d="
M677.078674,380.572968 
	C674.999817,378.406616 672.920959,376.240295 670.722351,373.788025 
	C671.639954,373.750702 673.066772,373.648071 673.655701,374.301086 
	C681.188660,382.654114 688.620850,391.098633 696.008667,399.580811 
	C696.598389,400.257812 696.671570,401.384613 696.979675,402.674774 
	C691.261780,396.408112 685.549011,389.769043 679.546631,382.966431 
	C679.257019,382.802917 679.177673,382.844666 679.110840,382.605957 
	C678.720825,382.173065 678.397644,381.978912 678.074402,381.784729 
	C678.074402,381.784729 678.037170,381.936920 678.032959,381.644684 
	C677.712097,381.092621 677.395386,380.832794 677.078674,380.572968 
z"/>
<path fill="#3A1B77" opacity="1.000000" stroke="none" 
	d="
M521.451416,794.969666 
	C521.807007,794.587219 522.584290,794.288513 523.692017,793.966003 
	C536.304077,793.638489 548.585327,793.317322 560.867676,793.050232 
	C562.680176,793.010803 564.498169,793.227722 566.609619,793.597046 
	C551.894836,794.263245 536.883972,794.658325 521.451416,794.969666 
z"/>
<path fill="#53358D" opacity="1.000000" stroke="none" 
	d="
M686.427856,752.114624 
	C689.027710,749.646729 691.838196,746.912292 694.964600,744.606201 
	C700.755188,740.334900 706.730591,736.314087 712.996826,732.294495 
	C704.503357,738.947144 695.642151,745.494202 686.427856,752.114624 
z"/>
<path fill="#53358D" opacity="1.000000" stroke="none" 
	d="
M689.218323,643.911255 
	C690.361328,642.558960 691.869934,641.207947 693.702148,639.706177 
	C697.512878,641.664246 701.137695,643.579590 704.448792,645.935791 
	C707.824158,648.337463 710.891174,651.172546 714.257935,654.076416 
	C713.400269,654.161926 712.128845,654.316833 711.396912,653.761169 
	C707.621643,650.895081 703.913391,647.929688 700.319763,644.838501 
	C696.895569,641.893188 693.546875,639.815125 689.218323,643.911255 
z"/>
<path fill="#53358D" opacity="1.000000" stroke="none" 
	d="
M391.589661,290.960022 
	C389.995575,292.717834 388.243286,294.816589 386.082977,296.334778 
	C381.597137,299.487274 376.894897,302.331757 372.094666,305.073486 
	C378.354034,300.242065 384.800354,295.640106 391.589661,290.960022 
z"/>
<path fill="#53358D" opacity="1.000000" stroke="none" 
	d="
M751.042847,347.574829 
	C750.672241,347.852783 749.961365,348.007233 749.724365,347.740540 
	C744.869568,342.278778 740.068909,336.768890 735.421570,330.916473 
	C740.698303,336.127930 745.810791,341.691528 751.042847,347.574829 
z"/>
<path fill="#3A1B77" opacity="1.000000" stroke="none" 
	d="
M273.030579,578.561035 
	C273.024994,578.990601 272.611572,578.974854 272.404755,578.977661 
	C270.781097,570.623596 269.364227,562.266602 268.015045,553.469299 
	C268.987885,554.533386 270.468353,555.955139 270.698364,557.556580 
	C271.679138,564.385925 272.290222,571.268372 273.030579,578.561035 
z"/>
<path fill="#53358D" opacity="1.000000" stroke="none" 
	d="
M731.349854,326.160950 
	C725.037048,324.757446 721.929626,319.274567 718.049133,314.293823 
	C722.423767,317.919373 726.821472,321.894470 731.349854,326.160950 
z"/>
<path fill="#53358D" opacity="1.000000" stroke="none" 
	d="
M379.968811,743.618347 
	C380.303894,743.003235 381.124054,742.266052 381.264618,742.378479 
	C384.530670,744.990967 387.723022,747.695557 390.939697,750.738647 
	C387.346039,748.693420 383.741669,746.292725 379.968811,743.618347 
z"/>
<path fill="#53358D" opacity="1.000000" stroke="none" 
	d="
M673.086609,807.705811 
	C672.158081,804.451721 671.350647,800.923462 670.838013,797.162842 
	C671.824463,800.430847 672.516052,803.931213 673.086609,807.705811 
z"/>
<path fill="#53358D" opacity="1.000000" stroke="none" 
	d="
M717.901062,313.691040 
	C716.737000,313.166870 715.417297,312.362518 714.113403,311.183990 
	C715.334595,311.676788 716.539978,312.543823 717.901062,313.691040 
z"/>
<path fill="#53358D" opacity="1.000000" stroke="none" 
	d="
M749.283752,696.859619 
	C749.812561,695.715210 750.611450,694.401123 751.781128,693.090576 
	C751.285828,694.292786 750.419800,695.491394 749.283752,696.859619 
z"/>
<path fill="#53358D" opacity="1.000000" stroke="none" 
	d="
M590.211182,254.300873 
	C590.258545,253.950043 590.488953,253.797577 590.809570,253.425430 
	C591.766113,253.410614 592.597412,253.562424 593.717407,253.862640 
	C592.813843,254.191452 591.621521,254.371872 590.211182,254.300873 
z"/>
<path fill="#53358D" opacity="1.000000" stroke="none" 
	d="
M713.610657,732.317993 
	C714.020325,731.639587 714.724915,730.858826 715.785034,730.084595 
	C715.395569,730.799255 714.650574,731.507507 713.610657,732.317993 
z"/>
<path fill="#53358D" opacity="1.000000" stroke="none" 
	d="
M752.398804,349.155762 
	C752.039246,349.108398 751.568420,348.817627 751.103027,348.183777 
	C751.501587,348.197937 751.894592,348.555145 752.398804,349.155762 
z"/>
<path fill="#53358D" opacity="1.000000" stroke="none" 
	d="
M712.948608,309.671021 
	C712.514648,309.747437 711.919739,309.562195 711.201721,309.075684 
	C711.648315,308.986084 712.217896,309.197723 712.948608,309.671021 
z"/>
<path fill="#53358D" opacity="1.000000" stroke="none" 
	d="
M734.350769,329.245667 
	C734.078491,329.369141 733.727112,329.277252 733.443420,328.876038 
	C733.839294,328.598755 734.092834,328.753265 734.350769,329.245667 
z"/>
<path fill="#53358D" opacity="1.000000" stroke="none" 
	d="
M735.361084,330.296143 
	C735.082825,330.414734 734.728577,330.302826 734.432434,329.878815 
	C734.839905,329.598419 735.104797,329.764740 735.361084,330.296143 
z"/>
<path fill="#53358D" opacity="1.000000" stroke="none" 
	d="
M714.083130,310.659180 
	C713.882446,310.735931 713.567566,310.563629 713.145569,310.137146 
	C713.348572,310.058685 713.658813,310.234406 714.083130,310.659180 
z"/>
<path fill="#EBEBEA" opacity="1.000000" stroke="none" 
	d="
M653.996582,402.002686 
	C654.114685,402.141357 654.236267,402.277405 654.357849,402.413422 
	C654.276001,402.363678 654.194153,402.313934 654.058716,402.128662 
	C654.005188,401.993103 654.000000,402.000000 653.996582,402.002686 
z"/>
<path fill="#53358D" opacity="1.000000" stroke="none" 
	d="
M753.354980,350.367371 
	C753.077881,350.466614 752.730591,350.333466 752.460388,349.896576 
	C752.892334,349.627625 753.141357,349.808319 753.354980,350.367371 
z"/>
<path fill="#53358D" opacity="1.000000" stroke="none" 
	d="
M733.352417,328.237854 
	C733.078430,328.361450 732.728149,328.272675 732.455688,327.876923 
	C732.858887,327.594940 733.106445,327.746796 733.352417,328.237854 
z"/>
<path fill="#53358D" opacity="1.000000" stroke="none" 
	d="
M732.355835,327.224182 
	C732.076477,327.359436 731.723755,327.271179 731.429749,326.871277 
	C731.831787,326.565094 732.096497,326.712097 732.355835,327.224182 
z"/>
<path fill="#53358D" opacity="1.000000" stroke="none" 
	d="
M589.597046,329.109497 
	C573.411316,325.084686 556.820312,324.537018 540.145264,324.772064 
	C510.974701,325.183228 483.147064,331.363739 456.443237,344.075134 
	C458.197723,342.535614 460.102814,340.447754 462.468567,339.407715 
	C477.388458,332.848236 493.008270,328.706512 509.070953,325.950134 
	C526.320618,322.990021 543.705444,322.096375 561.061035,323.235657 
	C570.637939,323.864319 580.062073,326.819031 589.597046,329.109497 
z"/>
<path fill="#53358D" opacity="1.000000" stroke="none" 
	d="
M352.069885,539.196716 
	C352.627502,540.539429 353.394104,542.324463 353.634186,544.177734 
	C357.751648,575.965820 368.341644,605.340027 386.305298,632.352417 
	C385.113525,631.536926 383.549103,630.583618 382.601135,629.206055 
	C373.334320,615.739014 366.835571,600.901428 361.331879,585.592773 
	C355.993225,570.743225 352.438721,555.523621 352.069885,539.196716 
z"/>
<path fill="#53358D" opacity="1.000000" stroke="none" 
	d="
M368.877869,434.193054 
	C364.459351,450.710938 359.666656,467.317444 354.939575,483.942657 
	C354.445892,485.679047 354.340424,487.525787 353.607208,489.684387 
	C352.787201,490.041870 352.414764,490.036255 352.042358,490.030670 
	C354.683472,471.258728 359.630096,453.130402 367.240692,435.752106 
	C367.488892,435.185333 368.087341,434.771973 368.877869,434.193054 
z"/>
<path fill="#3A1B77" opacity="1.000000" stroke="none" 
	d="
M527.402100,715.419800 
	C541.847839,714.426208 556.631226,714.106323 571.329651,712.816895 
	C579.029968,712.141418 586.580994,709.764832 594.589478,708.107300 
	C592.930359,709.093323 590.987000,710.535034 588.815491,711.100464 
	C568.735107,716.328918 548.268250,716.719788 527.402100,715.419800 
z"/>
<path fill="#53358D" opacity="1.000000" stroke="none" 
	d="
M636.646606,349.040497 
	C631.001587,346.714966 625.486877,343.753754 619.727173,341.389404 
	C609.962708,337.380951 600.043640,333.749176 590.017944,329.661438 
	C590.327393,329.256775 590.858582,328.958984 591.282104,329.070312 
	C607.400574,333.306549 622.756531,339.319824 636.646606,349.040497 
z"/>
<path fill="#53358D" opacity="1.000000" stroke="none" 
	d="
M459.114136,696.188721 
	C469.942657,699.919739 480.776520,704.003967 491.590912,708.139160 
	C492.302704,708.411316 492.865784,709.072632 493.733948,709.796936 
	C481.419250,707.954590 469.822510,703.403076 459.114136,696.188721 
z"/>
<path fill="#53358D" opacity="1.000000" stroke="none" 
	d="
M429.356781,677.954224 
	C439.165649,683.512146 448.945068,689.431641 458.937439,695.617065 
	C456.272888,694.847900 453.097687,694.283691 450.574310,692.688416 
	C443.350342,688.121643 436.390808,683.136536 429.356781,677.954224 
z"/>
<path fill="#53358D" opacity="1.000000" stroke="none" 
	d="
M406.805786,379.095093 
	C400.660461,386.993011 394.157135,394.877838 387.372314,402.945557 
	C387.097778,402.470001 386.845917,401.641510 387.150208,401.178314 
	C392.567200,392.932007 398.091125,384.764526 406.805786,379.095093 
z"/>
<path fill="#53358D" opacity="1.000000" stroke="none" 
	d="
M384.756897,406.071289 
	C379.992096,415.320831 374.866730,424.574005 369.447357,434.006622 
	C372.090485,427.638184 374.803070,420.975708 378.061279,414.591705 
	C379.647156,411.484436 382.252441,408.897430 384.756897,406.071289 
z"/>
<path fill="#3A1B77" opacity="1.000000" stroke="none" 
	d="
M352.633514,500.066833 
	C352.624878,500.531097 352.616241,500.995392 352.351257,501.970245 
	C352.006744,502.782440 352.037781,503.071289 352.187988,503.347351 
	C352.133514,514.306946 352.079071,525.266479 351.744019,536.610229 
	C351.463440,536.994324 351.024078,536.976074 351.024078,536.976074 
	C351.021362,524.960876 351.018646,512.945618 351.290009,500.473877 
	C351.920593,500.033844 352.277039,500.050354 352.633514,500.066833 
z"/>
<path fill="#53358D" opacity="1.000000" stroke="none" 
	d="
M390.112976,638.198059 
	C395.070312,643.618958 400.009766,649.408020 405.088074,655.500793 
	C403.499573,654.715393 401.326965,653.979858 400.128540,652.470703 
	C396.577942,647.999573 393.411652,643.223206 390.112976,638.198059 
z"/>
<path fill="#53358D" opacity="1.000000" stroke="none" 
	d="
M441.955017,351.353607 
	C436.455627,355.636810 430.596863,359.774017 424.416321,364.029907 
	C424.418274,363.257294 424.473022,361.952515 425.107849,361.539673 
	C430.544220,358.004089 436.085632,354.630005 441.955017,351.353607 
z"/>
<path fill="#53358D" opacity="1.000000" stroke="none" 
	d="
M410.102295,661.188110 
	C413.678986,663.991455 417.244690,667.153564 420.978577,670.604004 
	C415.477509,670.124268 413.026978,665.548523 410.102295,661.188110 
z"/>
<path fill="#53358D" opacity="1.000000" stroke="none" 
	d="
M678.133301,655.853577 
	C680.808655,652.469604 683.844910,649.129333 687.175354,645.684387 
	C686.736816,650.984009 682.316772,653.180786 678.133301,655.853577 
z"/>
<path fill="#53358D" opacity="1.000000" stroke="none" 
	d="
M417.022156,369.352142 
	C414.153534,372.611969 410.929688,375.732330 407.405731,379.002991 
	C410.292725,375.839752 413.479828,372.526215 417.022156,369.352142 
z"/>
<path fill="#53358D" opacity="1.000000" stroke="none" 
	d="
M660.962646,672.556213 
	C662.859131,670.279602 665.094116,668.188904 667.638428,665.961975 
	C665.732178,668.131226 663.516602,670.436707 660.962646,672.556213 
z"/>
<path fill="#53358D" opacity="1.000000" stroke="none" 
	d="
M644.870850,354.091797 
	C642.649170,353.211761 640.442932,351.947723 638.033325,350.412445 
	C640.182007,351.330078 642.534119,352.518890 644.870850,354.091797 
z"/>
<path fill="#53358D" opacity="1.000000" stroke="none" 
	d="
M386.294495,633.044312 
	C387.606628,634.196655 388.804932,635.712646 390.100098,637.546997 
	C388.858215,636.379578 387.519409,634.893799 386.294495,633.044312 
z"/>
<path fill="#3A1B77" opacity="1.000000" stroke="none" 
	d="
M352.034485,490.465271 
	C352.414764,490.036255 352.787201,490.041870 353.439575,490.043884 
	C353.528503,491.788666 353.337433,493.537048 352.931824,495.854553 
	C352.550812,496.707306 352.311218,496.900116 351.998566,497.002106 
	C352.007904,494.968018 352.017273,492.933929 352.034485,490.465271 
z"/>
<path fill="#53358D" opacity="1.000000" stroke="none" 
	d="
M422.669312,365.019348 
	C421.929810,365.996368 420.815643,366.971649 419.400146,368.052124 
	C420.164062,367.110748 421.229370,366.064209 422.669312,365.019348 
z"/>
<path fill="#53358D" opacity="1.000000" stroke="none" 
	d="
M351.734253,497.208252 
	C352.311218,496.900116 352.550812,496.707306 352.846558,496.227051 
	C352.954315,497.194092 352.932831,498.357697 352.772461,499.794067 
	C352.277039,500.050354 351.920593,500.033844 351.296814,500.021423 
	C351.176331,499.155121 351.323151,498.284790 351.734253,497.208252 
z"/>
<path fill="#53358D" opacity="1.000000" stroke="none" 
	d="
M421.096313,671.210938 
	C422.092926,671.566528 423.081879,672.294739 424.208313,673.290466 
	C423.260040,672.899841 422.174347,672.241699 421.096313,671.210938 
z"/>
<path fill="#53358D" opacity="1.000000" stroke="none" 
	d="
M426.096558,675.206421 
	C427.095459,675.543579 428.080078,676.254089 429.201630,677.220337 
	C428.253143,676.843994 427.167755,676.211914 426.096558,675.206421 
z"/>
<path fill="#53358D" opacity="1.000000" stroke="none" 
	d="
M455.727661,344.058716 
	C454.993591,344.733948 453.865875,345.384644 452.412842,346.095276 
	C453.169678,345.448181 454.251892,344.741150 455.727661,344.058716 
z"/>
<path fill="#53358D" opacity="1.000000" stroke="none" 
	d="
M656.152954,676.150513 
	C656.722839,675.274963 657.485291,674.613831 658.539185,673.864868 
	C658.002258,674.639709 657.173828,675.502319 656.152954,676.150513 
z"/>
<path fill="#53358D" opacity="1.000000" stroke="none" 
	d="
M270.001068,493.999329 
	C270.403168,495.225494 270.804230,496.452362 271.205261,497.679199 
	C270.897034,497.746796 270.588776,497.814392 270.280548,497.881989 
	C270.189117,496.834961 270.097656,495.787933 270.001831,494.371765 
	C269.997406,494.002625 270.000000,494.000000 270.001068,493.999329 
z"/>
<path fill="#53358D" opacity="1.000000" stroke="none" 
	d="
M386.772339,403.096283 
	C386.624023,403.976654 386.108917,404.871124 385.333984,405.938843 
	C385.517914,405.111542 385.961731,404.110962 386.772339,403.096283 
z"/>
<path fill="#53358D" opacity="1.000000" stroke="none" 
	d="
M674.212769,659.905579 
	C674.663879,658.961914 675.478210,658.024414 676.573547,656.948853 
	C676.094971,657.844421 675.335449,658.878052 674.212769,659.905579 
z"/>
<path fill="#53358D" opacity="1.000000" stroke="none" 
	d="
M446.955505,348.447662 
	C446.464050,349.185303 445.655090,349.724243 444.541687,350.316742 
	C445.037537,349.663177 445.837769,348.956085 446.955505,348.447662 
z"/>
<path fill="#53358D" opacity="1.000000" stroke="none" 
	d="
M670.643066,373.158569 
	C670.109741,373.196686 669.645630,372.939087 669.043091,372.443604 
	C669.507202,372.424713 670.109741,372.643768 670.643066,373.158569 
z"/>
<path fill="#53358D" opacity="1.000000" stroke="none" 
	d="
M406.144867,657.156067 
	C406.776611,657.316284 407.389252,657.839600 408.134399,658.639526 
	C407.553223,658.450500 406.839508,657.984802 406.144867,657.156067 
z"/>
<path fill="#53358D" opacity="1.000000" stroke="none" 
	d="
M449.772430,347.077148 
	C449.440033,347.557007 448.737701,347.996033 447.727478,348.455322 
	C448.080597,347.995819 448.741547,347.516083 449.772430,347.077148 
z"/>
<path fill="#53358D" opacity="1.000000" stroke="none" 
	d="
M443.911957,350.223633 
	C443.818298,350.664520 443.378937,351.030029 442.649689,351.427673 
	C442.761932,351.022583 443.164062,350.585388 443.911957,350.223633 
z"/>
<path fill="#53358D" opacity="1.000000" stroke="none" 
	d="
M451.809052,346.086914 
	C451.645477,346.426300 451.155029,346.760132 450.361450,347.139282 
	C450.532928,346.816864 451.007538,346.449127 451.809052,346.086914 
z"/>
<path fill="#53358D" opacity="1.000000" stroke="none" 
	d="
M424.324066,673.942139 
	C424.806732,673.865723 425.323273,674.124695 425.996246,674.635864 
	C425.554443,674.684509 424.956177,674.481018 424.324066,673.942139 
z"/>
<path fill="#53358D" opacity="1.000000" stroke="none" 
	d="
M659.154053,673.865479 
	C659.207703,673.433228 659.604004,673.029785 660.277100,672.583496 
	C660.201538,672.991821 659.849182,673.443115 659.154053,673.865479 
z"/>
<path fill="#53358D" opacity="1.000000" stroke="none" 
	d="
M418.808411,368.093872 
	C418.730377,368.504028 418.314728,368.907562 417.612488,369.368225 
	C417.707550,368.979279 418.089172,368.533264 418.808411,368.093872 
z"/>
<path fill="#53358D" opacity="1.000000" stroke="none" 
	d="
M687.883789,645.645386 
	C687.817871,645.147644 688.091675,644.638733 688.637695,643.995544 
	C688.681091,644.452271 688.452271,645.043213 687.883789,645.645386 
z"/>
<path fill="#3A1B77" opacity="1.000000" stroke="none" 
	d="
M525.231079,714.375000 
	C525.468628,714.093384 525.727173,714.203308 525.986572,714.736145 
	C525.810120,714.857422 525.564941,714.726562 525.231079,714.375000 
z"/>
<path fill="#53358D" opacity="1.000000" stroke="none" 
	d="
M351.114502,537.200562 
	C351.024078,536.976074 351.463440,536.994324 351.683044,536.983521 
	C351.954834,537.137878 352.007019,537.303040 352.016785,537.724487 
	C351.645599,537.895691 351.389099,537.710449 351.114502,537.200562 
z"/>
<path fill="#53358D" opacity="1.000000" stroke="none" 
	d="
M405.198914,656.045837 
	C405.428406,655.969910 405.725311,656.171021 406.115723,656.631714 
	C405.894897,656.701843 405.580597,656.512329 405.198914,656.045837 
z"/>
<path fill="#53358D" opacity="1.000000" stroke="none" 
	d="
M671.086914,662.850464 
	C671.036316,662.660278 671.246521,662.362610 671.706482,661.942505 
	C671.753418,662.127808 671.550598,662.435425 671.086914,662.850464 
z"/>
<path fill="#53358D" opacity="1.000000" stroke="none" 
	d="
M637.817322,349.932281 
	C637.552734,350.092010 637.206909,349.976379 636.785278,349.597717 
	C637.051697,349.442108 637.393860,349.549500 637.817322,349.932281 
z"/>
<path fill="#53358D" opacity="1.000000" stroke="none" 
	d="
M677.072021,656.823486 
	C676.983643,656.589722 677.169922,656.278748 677.616577,655.874268 
	C677.700317,656.102539 677.523560,656.424377 677.072021,656.823486 
z"/>
<path fill="#53358D" opacity="1.000000" stroke="none" 
	d="
M423.891479,364.138763 
	C423.936676,364.334991 423.730103,364.612793 423.268005,364.966736 
	C423.221497,364.768707 423.430603,364.494507 423.891479,364.138763 
z"/>
<path fill="#53358D" opacity="1.000000" stroke="none" 
	d="
M409.164551,660.027588 
	C409.377350,659.973206 409.676453,660.191772 410.070923,660.675781 
	C409.861176,660.727661 409.556030,660.514038 409.164551,660.027588 
z"/>
<path fill="#53358D" opacity="1.000000" stroke="none" 
	d="
M673.064453,660.854370 
	C673.007568,660.649353 673.216492,660.350708 673.685547,659.949585 
	C673.740601,660.151672 673.535461,660.456177 673.064453,660.854370 
z"/>
<path fill="#FFFFFF" opacity="1.000000" stroke="none" 
	d="
M685.003235,609.004517 
	C684.650696,609.259094 684.295715,609.510742 683.927490,609.741394 
	C683.920105,609.746033 683.759460,609.506226 683.670349,609.380432 
	C683.947327,609.255432 684.224365,609.130493 684.744995,608.997070 
	C684.988647,608.988586 684.999268,608.999207 685.003235,609.004517 
z"/>
<path fill="#53358D" opacity="1.000000" stroke="none" 
	d="
M352.331329,503.161865 
	C352.037781,503.071289 352.006744,502.782440 352.210510,502.292206 
	C352.570404,502.361267 352.619934,502.652191 352.331329,503.161865 
z"/>
<path fill="#FFFFFF" opacity="1.000000" stroke="none" 
	d="
M678.170593,382.055908 
	C678.397644,381.978912 678.720825,382.173065 679.130188,382.646423 
	C678.899780,382.726074 678.583252,382.526581 678.170593,382.055908 
z"/>
<path fill="#FFFFFF" opacity="1.000000" stroke="none" 
	d="
M677.166626,380.873932 
	C677.395386,380.832794 677.712097,381.092621 678.110901,381.652954 
	C677.880188,381.693939 677.567444,381.434418 677.166626,380.873932 
z"/>
<path fill="#5D399F" opacity="1.000000" stroke="none" 
	d="
M268.345154,542.046875 
	C268.902039,541.989380 269.644806,542.100769 269.869812,542.502258 
	C270.102173,542.916992 269.831207,543.613708 269.701294,545.080444 
	C268.970459,543.649170 268.637024,542.996155 268.345154,542.046875 
z"/>
</svg>